<svg xmlns="http://www.w3.org/2000/svg" width="225" height="225" viewBox="0 0 225 225">
<g>
<path d="M 0.00 0.00 L 225.00 0.00 L 225.00 225.00 L 0.00 225.00 ZM 95.49 106.25 L 98.12 115.00 L 106.69 115.00 L 109.86 101.75 C111.60,94.46 113.02,87.96 113.01,87.31 C113.00,86.65 113.40,85.87 113.89,85.57 C114.37,85.27 116.22,90.98 117.98,98.26 C119.75,105.54 121.41,112.29 121.66,113.25 C122.01,114.54 123.17,115.00 126.03,115.00 C128.73,115.00 130.21,114.46 130.83,113.25 C131.74,111.50 143.00,75.71 143.00,74.59 C143.00,74.27 141.22,74.00 139.04,74.00 C135.30,74.00 135.02,74.21 134.09,77.75 C133.55,79.81 131.90,86.22 130.42,92.00 C128.93,97.78 127.39,103.14 126.98,103.91 C126.54,104.75 124.73,98.96 122.52,89.66 L 118.81 74.00 L 110.19 74.00 L 106.50 89.57 C104.47,98.13 102.64,104.97 102.44,104.77 C102.24,104.57 100.33,97.68 98.19,89.46 L 94.31 74.50 L 90.15 74.19 C87.87,74.02 86.00,74.19 86.00,74.55 C86.00,74.92 87.55,80.23 89.43,86.36 C91.32,92.49 94.05,101.44 95.49,106.25 ZM 101.00 156.35 C111.37,157.91 131.07,156.01 142.50,152.34 C155.86,148.06 170.00,140.44 170.00,137.51 C170.00,135.34 167.87,135.61 157.80,139.07 C147.61,142.57 133.18,145.51 121.50,146.48 C101.00,148.18 70.72,141.69 51.03,131.39 C39.59,125.39 38.67,127.46 49.25,135.38 C64.85,147.06 79.98,153.20 101.00,156.35 ZM 53.76 114.43 C58.28,116.89 66.10,116.42 70.49,113.44 L 74.25 110.89 L 76.62 113.11 C78.67,115.04 79.32,115.17 81.60,114.14 C83.72,113.17 84.07,112.52 83.46,110.72 C83.05,109.50 82.43,102.40 82.09,94.94 C81.62,84.46 81.08,80.77 79.73,78.70 C76.65,74.01 73.51,72.66 65.67,72.69 C56.64,72.72 51.00,74.87 51.00,78.28 C51.00,81.72 51.71,82.01 56.22,80.42 C66.46,76.81 74.45,80.11 73.81,87.67 L 73.50 91.32 L 65.48 91.10 C58.52,90.91 57.01,91.19 54.00,93.22 C52.09,94.51 49.97,96.67 49.28,98.03 C46.45,103.63 48.64,111.65 53.76,114.43 ZM 155.00 116.06 C159.42,117.05 166.63,116.24 170.28,114.35 C173.76,112.56 176.99,107.42 177.00,103.70 C177.01,96.93 174.17,94.46 160.74,89.56 C158.12,88.61 155.52,86.97 154.95,85.91 C153.57,83.34 155.31,80.21 158.58,79.39 C161.23,78.72 168.87,79.35 172.83,80.56 C174.94,81.21 175.13,81.00 174.83,78.39 C174.39,74.56 170.26,72.63 162.50,72.65 C152.50,72.66 147.00,76.87 147.00,84.50 C147.00,91.21 150.51,94.48 161.08,97.62 C166.76,99.30 169.00,101.25 169.00,104.51 C169.00,109.61 160.18,111.60 151.50,108.47 C146.11,106.53 146.00,106.56 146.00,110.02 C146.00,113.26 147.75,114.44 155.00,116.06 ZM 172.00 149.66 C172.00,151.51 173.39,151.34 175.27,149.25 C180.23,143.73 184.89,128.28 182.10,126.56 C177.77,123.89 163.31,125.24 158.00,128.82 C155.56,130.46 155.73,130.51 165.50,131.00 C175.27,131.49 175.51,131.56 175.79,134.00 C175.95,135.38 175.16,139.16 174.04,142.41 C172.92,145.66 172.00,148.92 172.00,149.66 ZM 68.85 108.57 C60.65,112.82 52.60,106.30 57.46,99.36 C59.15,96.95 64.77,95.76 70.27,96.66 C73.33,97.15 74.00,97.68 74.00,99.58 C74.00,103.26 71.85,107.03 68.85,108.57 Z" fill="rgb(36,45,60)"/>
<path d="M 101.00 156.35 C79.98,153.20 64.85,147.06 49.25,135.38 C38.67,127.46 39.59,125.39 51.03,131.39 C70.72,141.69 101.00,148.18 121.50,146.48 C133.18,145.51 147.61,142.57 157.80,139.07 C167.87,135.61 170.00,135.34 170.00,137.51 C170.00,140.44 155.86,148.06 142.50,152.34 C131.07,156.01 111.37,157.91 101.00,156.35 ZM 172.00 149.66 C172.00,148.92 172.92,145.66 174.04,142.41 C175.16,139.16 175.95,135.38 175.79,134.00 C175.51,131.56 175.27,131.49 165.50,131.00 C155.73,130.51 155.56,130.46 158.00,128.82 C163.31,125.24 177.77,123.89 182.10,126.56 C184.89,128.28 180.23,143.73 175.27,149.25 C173.39,151.34 172.00,151.51 172.00,149.66 ZM 155.00 116.06 C147.75,114.44 146.00,113.26 146.00,110.02 C146.00,106.56 146.11,106.53 151.50,108.47 C160.18,111.60 169.00,109.61 169.00,104.51 C169.00,101.25 166.76,99.30 161.08,97.62 C150.51,94.48 147.00,91.21 147.00,84.50 C147.00,76.87 152.50,72.66 162.50,72.65 C170.26,72.63 174.39,74.56 174.83,78.39 C175.13,81.00 174.94,81.21 172.83,80.56 C168.87,79.35 161.23,78.72 158.58,79.39 C155.31,80.21 153.57,83.34 154.95,85.91 C155.52,86.97 158.12,88.61 160.74,89.56 C174.17,94.46 177.01,96.93 177.00,103.70 C176.99,107.42 173.76,112.56 170.28,114.35 C166.63,116.24 159.42,117.05 155.00,116.06 ZM 53.76 114.43 C48.64,111.65 46.45,103.63 49.28,98.03 C49.97,96.67 52.09,94.51 54.00,93.22 C57.01,91.19 58.52,90.91 65.48,91.10 L 73.50 91.32 L 73.81 87.67 C74.45,80.11 66.46,76.81 56.22,80.42 C51.71,82.01 51.00,81.72 51.00,78.28 C51.00,74.87 56.64,72.72 65.67,72.69 C73.51,72.66 76.65,74.01 79.73,78.70 C81.08,80.77 81.62,84.46 82.09,94.94 C82.43,102.40 83.05,109.50 83.46,110.72 C84.07,112.52 83.72,113.17 81.60,114.14 C79.32,115.17 78.67,115.04 76.62,113.11 L 74.25 110.89 L 70.49 113.44 C66.10,116.42 58.28,116.89 53.76,114.43 ZM 68.85 108.57 C71.85,107.03 74.00,103.26 74.00,99.58 C74.00,97.68 73.33,97.15 70.27,96.66 C64.77,95.76 59.15,96.95 57.46,99.36 C52.60,106.30 60.65,112.82 68.85,108.57 ZM 95.49 106.25 C94.05,101.44 91.32,92.49 89.43,86.36 C87.55,80.23 86.00,74.92 86.00,74.55 C86.00,74.19 87.87,74.02 90.15,74.19 L 94.31 74.50 L 98.19 89.46 C100.33,97.68 102.24,104.57 102.44,104.77 C102.64,104.97 104.47,98.13 106.50,89.57 L 110.19 74.00 L 114.50 74.00 L 118.81 74.00 L 122.52 89.66 C124.73,98.96 126.54,104.75 126.98,103.91 C127.39,103.14 128.93,97.78 130.42,92.00 C131.90,86.22 133.55,79.81 134.09,77.75 C135.02,74.21 135.30,74.00 139.04,74.00 C141.22,74.00 143.00,74.27 143.00,74.59 C143.00,75.71 131.74,111.50 130.83,113.25 C130.21,114.46 128.73,115.00 126.03,115.00 C123.17,115.00 122.01,114.54 121.66,113.25 C121.41,112.29 119.75,105.54 117.98,98.26 C116.22,90.98 114.37,85.27 113.89,85.57 C113.40,85.87 113.00,86.65 113.01,87.31 C113.02,87.96 111.60,94.46 109.86,101.75 L 106.69 115.00 L 102.41 115.00 L 98.12 115.00 L 95.49 106.25 Z" fill="rgb(250,251,252)"/>
</g>
</svg>