<svg xmlns="http://www.w3.org/2000/svg" width="135" height="149" viewBox="0 0 135 149">
<g>
<path d="M 135.00 149.00 L 0.00 149.00 L 32.25 148.99 L 64.50 148.99 L 34.51 131.92 C7.55,116.57 3.04,113.72 3.03,112.00 C3.02,111.72 7.85,108.70 13.76,105.27 L 24.50 99.05 L 26.43 101.77 C30.44,107.45 39.07,115.01 44.92,117.96 C66.64,128.92 88.93,124.74 105.58,106.58 L 111.93 99.66 L 117.21 102.99 C120.12,104.83 124.60,107.36 127.17,108.63 C129.74,109.89 132.09,111.33 132.39,111.83 C133.42,113.48 129.14,116.25 100.22,132.67 L 71.50 148.97 L 135.00 149.00 ZM 78.63 96.50 C70.61,100.49 61.82,99.66 53.89,94.14 C50.64,91.89 46.43,87.16 47.15,86.59 C47.34,86.44 51.97,83.71 57.42,80.52 L 67.35 74.73 L 73.42 78.01 C76.77,79.82 80.18,81.85 81.00,82.52 C81.82,83.19 83.85,84.18 85.50,84.72 C90.89,86.49 87.69,91.98 78.63,96.50 Z" fill="rgb(43,37,93)"/>
<path d="M 107.91 104.04 C108.51,103.29 108.98,102.63 109.27,102.13 L 111.05 99.11 L 102.77 94.22 C101.64,93.55 100.61,92.94 99.67,92.38 C93.54,88.73 91.37,87.44 89.70,87.91 C88.98,88.12 88.36,88.64 87.56,89.45 C88.72,87.35 88.14,85.59 85.50,84.72 C83.85,84.18 81.82,83.19 81.00,82.52 C80.18,81.85 76.77,79.82 73.42,78.01 L 67.35 74.73 L 57.42 80.52 C55.90,81.41 54.45,82.26 53.13,83.03 C62.05,77.57 78.35,68.14 85.50,64.47 C94.77,59.71 110.27,50.90 111.00,49.97 C111.65,49.15 131.60,38.00 132.43,38.00 C132.78,38.00 133.47,39.01 133.97,40.25 C134.55,41.70 134.90,34.97 134.94,21.25 L 135.00 0.00 L 135.00 149.00 L 134.91 127.75 C134.85,113.48 134.53,107.51 133.92,109.58 C133.63,110.60 133.04,111.80 132.37,112.82 C132.59,112.42 132.57,112.11 132.39,111.83 C132.09,111.33 129.74,109.89 127.17,108.63 C124.60,107.36 120.12,104.83 117.21,102.99 L 111.93 99.66 ZM 103.67 88.33 C105.17,89.83 106.00,88.80 106.00,85.44 C106.00,82.04 106.15,81.89 109.16,82.19 C111.32,82.40 112.40,83.08 112.58,84.33 C113.06,87.61 113.91,89.00 115.47,89.00 C116.55,89.00 117.00,87.98 117.00,85.50 C117.00,82.17 117.17,82.00 120.50,82.00 C123.30,82.00 124.00,81.61 124.00,80.06 C124.00,78.61 123.19,78.05 120.75,77.81 C117.89,77.54 117.46,77.11 117.19,74.25 C116.89,71.13 117.02,71.00 120.44,71.00 C125.13,71.00 125.40,68.26 120.75,67.81 C117.89,67.54 117.46,67.11 117.19,64.25 C116.95,61.81 116.39,61.00 114.94,61.00 C113.38,61.00 113.00,61.71 113.00,64.56 C113.00,67.98 112.87,68.11 109.75,67.81 C106.89,67.54 106.46,67.11 106.19,64.25 C106.00,62.31 105.32,61.00 104.50,61.00 C103.68,61.00 103.00,62.31 102.81,64.25 C102.54,67.11 102.11,67.54 99.25,67.81 C94.64,68.26 94.86,71.00 99.50,71.00 C102.83,71.00 103.00,71.17 103.00,74.50 C103.00,77.83 102.83,78.00 99.50,78.00 C96.67,78.00 96.00,78.38 96.00,80.00 C96.00,81.62 96.67,82.00 99.50,82.00 C102.68,82.00 103.00,82.26 103.00,84.83 C103.00,86.39 103.30,87.97 103.67,88.33 ZM 113.00 74.44 C113.00,77.85 112.85,78.00 109.44,78.00 C106.02,78.00 105.89,77.87 106.19,74.75 C106.46,71.89 106.89,71.46 109.75,71.19 C112.87,70.89 113.00,71.02 113.00,74.44 ZM 81.04 122.28 C69.56,125.50 57.15,124.13 44.92,117.96 C57.03,124.07 69.51,125.45 81.04,122.28 ZM 132.12 113.19 C131.74,113.72 131.35,114.18 130.98,114.52 C130.60,114.86 128.74,116.04 125.83,117.80 C129.53,115.49 131.38,114.12 132.12,113.19 ZM 63.51 98.46 C60.73,97.88 58.01,96.78 55.45,95.16 C58.07,96.77 60.78,97.87 63.51,98.46 ZM 47.84 88.28 C47.33,87.67 47.03,87.22 47.03,87.08 C47.04,87.06 47.06,87.03 47.10,86.98 C47.19,87.30 47.45,87.75 47.84,88.28 Z" fill="rgb(55,39,126)"/>
<path d="M 3.03 112.00 C3.03,112.38 3.25,112.80 3.86,113.40 C2.95,112.71 2.41,112.20 2.25,111.89 C1.29,110.08 1.05,100.90 1.25,73.77 L 1.50 38.04 L 4.00 35.61 C5.38,34.28 19.33,25.94 35.00,17.09 C65.58,-0.17 67.46,-0.86 74.30,2.63 C81.89,6.51 128.67,33.40 130.39,34.88 C131.33,35.69 132.60,37.47 133.38,39.03 C133.01,38.41 132.65,38.00 132.43,38.00 C131.60,38.00 111.65,49.15 111.00,49.97 C110.73,50.32 108.43,51.75 105.17,53.65 C108.45,51.66 110.97,50.03 110.98,49.77 C111.03,47.98 97.28,34.73 92.58,32.05 C78.33,23.89 57.57,23.95 43.18,32.18 C30.63,39.37 21.42,52.68 18.97,67.18 C16.50,81.80 21.18,96.14 30.69,106.81 C29.02,105.08 27.54,103.35 26.43,101.77 L 24.50 99.05 L 13.76 105.27 C7.85,108.70 3.02,111.72 3.03,112.00 ZM 90.94 61.61 C89.01,62.65 87.15,63.62 85.50,64.47 C78.35,68.14 62.05,77.57 53.13,83.03 C49.73,85.03 47.29,86.48 47.15,86.59 C47.06,86.66 47.05,86.80 47.10,86.98 C47.08,87.00 47.07,87.02 47.06,87.03 C44.84,83.61 44.00,79.93 44.02,74.63 C44.05,66.83 46.44,61.49 52.05,56.69 C56.85,52.58 61.26,51.01 68.00,51.01 C75.22,51.01 79.75,52.79 84.76,57.59 C87.32,60.05 89.89,61.94 90.46,61.78 C90.58,61.75 90.74,61.69 90.94,61.61 ZM 81.04 122.28 C76.10,123.64 70.99,124.16 65.80,123.84 C72.40,124.07 79.37,123.00 85.56,120.76 C84.07,121.35 82.56,121.86 81.04,122.28 ZM 64.50 148.99 L 34.00 131.64 C31.72,130.34 29.55,129.10 27.51,127.92 C29.66,129.15 31.99,130.48 34.51,131.92 L 64.50 148.99 ZM 133.92 40.13 C134.02,40.29 134.12,40.38 134.20,40.38 C134.13,40.50 134.05,40.45 133.97,40.25 C133.95,40.21 133.94,40.17 133.92,40.13 Z" fill="rgb(146,122,179)"/>
<path d="M 0.00 74.50 L 0.00 0.00 L 67.50 0.00 L 135.00 0.00 L 134.96 21.25 C134.93,39.75 134.75,42.11 133.60,39.50 C132.87,37.85 131.42,35.77 130.39,34.88 C128.67,33.40 81.89,6.51 74.30,2.63 C67.46,-0.86 65.58,-0.17 35.00,17.09 C19.33,25.94 5.38,34.28 4.00,35.61 L 1.50 38.04 L 1.25 73.77 C1.05,100.90 1.29,110.08 2.25,111.89 C3.08,113.48 13.78,120.13 34.00,131.64 L 64.50 148.99 L 32.25 148.99 L 0.00 149.00 L 0.00 74.50 ZM 100.22 132.67 C116.01,123.71 129.85,115.54 130.98,114.52 C132.11,113.50 133.43,111.28 133.92,109.58 C134.53,107.51 134.85,113.48 134.91,127.75 L 135.00 149.00 L 103.25 148.99 L 71.50 148.97 L 100.22 132.67 ZM 56.26 122.46 C30.90,115.63 14.82,91.79 18.97,67.18 C21.42,52.68 30.63,39.37 43.18,32.18 C57.57,23.95 78.33,23.89 92.58,32.05 C97.28,34.73 111.03,47.98 110.98,49.77 C110.96,50.46 92.64,61.19 90.46,61.78 C89.89,61.94 87.32,60.05 84.76,57.59 C79.75,52.79 75.22,51.01 68.00,51.01 C61.26,51.01 56.85,52.58 52.05,56.69 C46.44,61.49 44.05,66.83 44.02,74.63 C44.00,82.09 45.66,86.34 50.51,91.18 C60.83,101.49 75.50,101.55 85.72,91.34 C90.68,86.37 89.01,86.09 102.77,94.22 L 111.05 99.11 L 109.27 102.13 C106.79,106.37 98.41,114.10 92.62,117.48 C82.35,123.50 67.61,125.51 56.26,122.46 ZM 103.67 88.33 C103.30,87.97 103.00,86.39 103.00,84.83 C103.00,82.26 102.68,82.00 99.50,82.00 C96.67,82.00 96.00,81.62 96.00,80.00 C96.00,78.38 96.67,78.00 99.50,78.00 C102.83,78.00 103.00,77.83 103.00,74.50 C103.00,71.17 102.83,71.00 99.50,71.00 C94.86,71.00 94.64,68.26 99.25,67.81 C102.11,67.54 102.54,67.11 102.81,64.25 C103.00,62.31 103.68,61.00 104.50,61.00 C105.32,61.00 106.00,62.31 106.19,64.25 C106.46,67.11 106.89,67.54 109.75,67.81 C112.87,68.11 113.00,67.98 113.00,64.56 C113.00,61.71 113.38,61.00 114.94,61.00 C116.39,61.00 116.95,61.81 117.19,64.25 C117.46,67.11 117.89,67.54 120.75,67.81 C125.40,68.26 125.13,71.00 120.44,71.00 C117.02,71.00 116.89,71.13 117.19,74.25 C117.46,77.11 117.89,77.54 120.75,77.81 C123.19,78.05 124.00,78.61 124.00,80.06 C124.00,81.61 123.30,82.00 120.50,82.00 C117.17,82.00 117.00,82.17 117.00,85.50 C117.00,87.98 116.55,89.00 115.47,89.00 C113.91,89.00 113.06,87.61 112.58,84.33 C112.40,83.08 111.32,82.40 109.16,82.19 C106.15,81.89 106.00,82.04 106.00,85.44 C106.00,88.80 105.17,89.83 103.67,88.33 ZM 113.00 74.44 C113.00,71.02 112.87,70.89 109.75,71.19 C106.89,71.46 106.46,71.89 106.19,74.75 C105.89,77.87 106.02,78.00 109.44,78.00 C112.85,78.00 113.00,77.85 113.00,74.44 Z" fill="rgb(252,251,253)"/>
</g>
</svg>